<svg xmlns="http://www.w3.org/2000/svg" width="512" height="270" viewBox="0 0 135.467 71.438"><g fill="#ffffff"><path d="M10.74 36.174h9.375v-3.598h-9.374v3.598M24.35 31.17h14.459v-3.599H24.333l.016 3.6" fill-rule="evenodd"/><path d="M20.117 36.175l8.304-7.45-4.088-1.154-8.845 7.896 4.629.708" fill-rule="evenodd"/><path d="M6.16 29.27a5.003 5.041 0 00-4.944 5.04 5.003 5.041 0 005.003 5.042 5.003 5.041 0 005.002-5.041 5.003 5.041 0 00-5.002-5.04 5.003 5.041 0 00-.058 0zm.012 2.51a2.537 2.556 0 01.03 0 2.537 2.556 0 012.536 2.556 2.537 2.556 0 01-2.537 2.556 2.537 2.556 0 01-2.537-2.556 2.537 2.556 0 012.508-2.556z" paint-order="fill markers stroke"/></g><g fill="#ffffff"><path d="M15.543 3.234h9.374v3.6h-9.374v-3.6M29.152 8.239H43.61v3.6H29.135l.017-3.6" fill-rule="evenodd"/><path d="M24.918 3.233l8.305 7.452-4.088 1.153-8.846-7.897 4.629-.708" fill-rule="evenodd"/><path d="M11.04.276a5.003 5.041 0 00-4.944 5.041 5.003 5.041 0 005.003 5.04 5.003 5.041 0 005.002-5.04A5.003 5.041 0 0011.1.277a5.003 5.041 0 00-.059 0zm.012 2.51a2.537 2.556 0 01.03 0 2.537 2.556 0 012.536 2.557 2.537 2.556 0 01-2.537 2.556 2.537 2.556 0 01-2.537-2.556 2.537 2.556 0 012.508-2.557z" paint-order="fill markers stroke"/></g><g fill="#ffffff" fill-rule="evenodd"><path d="M25.54 14.883h-9.989v10.064h9.989zm-2.957 2.98H18.51v4.104h4.074v-4.105"/><path d="M25.038 18.088h9.133l1.284-3.487h16.607v7.085H25.038v-3.598"/></g><g fill="#ffffff" fill-rule="evenodd"><path d="M17.556 52.806H7.568V42.74h9.988zm-2.956-2.98h-4.074v-4.105H14.6v4.105"/><path d="M17.055 49.6h9.373v-3.598h-9.373v3.599M30.664 44.597h14.458v-3.6H30.646l.018 3.6"/><path d="M26.43 49.602l8.305-7.451-4.089-1.153-8.845 7.896 4.629.708"/></g><path class="st0" d="M117.148 6.552l-1.087 7.613c-.326 2.191-1.25 2.958-3.425 2.958h-10.164l-5.979 32.7c-.435 2.135-1.25 2.902-3.424 2.902h-7.773c-2.174 0-2.827-.767-2.392-2.903l5.98-32.7H77.576c-2.174 0-2.772-.766-2.391-2.957l1.087-7.613c.435-2.137 1.25-2.903 3.424-2.903h35.06c2.174 0 2.826.766 2.39 2.903zM119.485 20.519h8.1c2.065 0 2.663.712 2.282 2.793l-4.457 26.73c-.326 2.08-1.142 2.793-3.207 2.793h-8.153c-2.066 0-2.61-.712-2.283-2.794l4.457-26.729c.435-2.081 1.196-2.793 3.261-2.793z" fill="#ffffff"/><path class="st0" d="M122.638 3.649h8.48c2.065 0 2.663.712 2.282 2.793l-1.685 8.764c-.326 2.081-1.141 2.793-3.207 2.793h-8.099c-2.065 0-2.609-.712-2.283-2.793l1.36-8.764c.325-2.136 1.086-2.793 3.152-2.793zM79.425 24.024l-1.793 10.407c-2.12 11.995-10.6 18.349-24.188 18.349h-16.85c-2.175 0-2.827-.767-2.392-2.903l7.555-43.325c.435-2.137 1.25-2.903 3.425-2.903h16.687c13.589 0 19.676 8.435 17.556 20.375zm-20.11-8.27h-5.6l-4.348 24.921h5.653c5.544 0 8.37-2.574 9.295-7.449l1.74-9.969c.814-4.93-1.197-7.504-6.74-7.504z" fill="#ffffff"/><g font-weight="400" font-size="10.583" fill="#ffffff" stroke-width=".265"><g style="line-height:1.25" aria-label="Apps" font-family="Conthrax"><path style="-inkscape-font-specification:Conthrax" d="M46.474 56.298q.6 0 1.01.255.412.239.806.955l5.228 9.564q.079.16.031.27-.031.096-.22.096h-2.007q-.268 0-.363-.207l-1.121-2.053h-7.422l-1.09 2.053q-.11.207-.363.207H38.91q-.206 0-.253-.096-.032-.111.047-.27l5.18-9.564q.395-.716.774-.955.38-.255.884-.255zm-3.064 7.034h5.433l-2.51-4.663q-.064-.111-.175-.111h-.094q-.111 0-.174.111zM62.94 58.701q1.058 0 1.784.191.727.175 1.153.573.442.382.632 1.003.19.604.19 1.464v2.291q0 .86-.19 1.48-.19.605-.632 1.003-.426.382-1.153.557-.726.175-1.784.175h-5.923v3.167q0 .35-.347.35h-1.548q-.363 0-.363-.35v-8.673q0-.86.19-1.464.19-.621.616-1.003.442-.398 1.152-.573.727-.19 1.8-.19zm-5.923 6.827h5.702q.52 0 .852-.08.332-.079.521-.286.206-.207.285-.54.079-.335.079-.844V62.36q0-.493-.08-.827-.078-.35-.284-.541-.189-.207-.52-.287-.332-.095-.853-.095h-3.98q-.506 0-.837.095-.332.08-.537.287-.19.19-.269.54-.079.335-.079.828zM76.696 58.701q1.059 0 1.785.191.726.175 1.153.573.442.382.632 1.003.189.604.189 1.464v2.291q0 .86-.19 1.48-.189.605-.631 1.003-.427.382-1.153.557-.726.175-1.785.175h-5.922v3.167q0 .35-.347.35h-1.548q-.363 0-.363-.35v-8.673q0-.86.19-1.464.189-.621.615-1.003.442-.398 1.153-.573.727-.19 1.8-.19zm-5.922 6.827h5.701q.521 0 .853-.08.332-.079.521-.286.206-.207.285-.54.078-.335.078-.844V62.36q0-.493-.078-.827-.08-.35-.285-.541-.19-.207-.52-.287-.333-.095-.854-.095h-3.98q-.505 0-.836.095-.332.08-.537.287-.19.19-.269.54-.079.335-.079.828zM92.317 58.701q.284 0 .284.287v1.273q0 .286-.284.286h-7.123q-.49 0-.679.191-.19.175-.19.525v.24q0 .317.19.508.19.175.68.175h5.321q1.327 0 1.895.557.569.557.569 1.576v.891q0 .525-.126.939-.127.414-.427.7-.284.287-.758.446-.474.143-1.168.143h-8.086q-.284 0-.284-.286v-1.274q0-.286.284-.286H89.9q.49 0 .68-.175.205-.175.205-.589v-.43q0-.318-.205-.493-.19-.175-.68-.175h-5.306q-1.326 0-1.895-.541-.568-.557-.568-1.607v-.7q0-.494.126-.892.126-.413.41-.7.3-.286.774-.43.474-.159 1.169-.159z"/></g><g style="line-height:1.25" aria-label="&lt; /&gt;" font-family="Techno Various"><path style="-inkscape-font-specification:'Techno Various'" d="M37.048 67.148l-5.968-3.52v.007q-.401-.248-.517-.684-.038-.14-.038-.28 0-.287.154-.567.185-.303.486-.45l5.883-3.466q.27-.155.556-.155.138 0 .424.078.285.07.532.473.154.272.154.56 0 .14-.077.427-.07.288-.47.537l-4.342 2.564 4.341 2.556q.401.249.51.676.038.148.038.288 0 .287-.154.56-.247.403-.671.512-.147.039-.285.039-.286 0-.556-.155zM96.987 67.653q-.138.45-.516.676-.262.155-.555.155-.14 0-.286-.038-.455-.14-.678-.521-.147-.257-.147-.544 0-.148.039-.303l2.49-9.395q.14-.45.517-.676.262-.155.555-.155.14 0 .293.039.448.14.671.52.147.257.147.544 0 .156-.039.311zM101.306 65.228l4.341-2.556-4.341-2.564q-.401-.249-.51-.676-.038-.148-.038-.288 0-.287.154-.56.247-.403.671-.512.147-.039.286-.039.285 0 .555.155l5.884 3.466q.3.148.485.45.155.273.155.56 0 .14-.078.435-.069.288-.478.537v-.008l-5.968 3.52q-.27.156-.555.156-.14 0-.424-.07-.286-.078-.533-.482-.154-.272-.154-.56 0-.14.07-.427.077-.288.478-.536z"/></g></g></svg>
